# xmcd CD database file
#
# Track frame offsets:
#	150
#	12670
#	38910
#	72762
#	81364
#	104658
#	140602
#	170299
#	178416
#	210782
#	222506
#
# Disc length: 3168 seconds
#
# Revision: 0
# Processed by: cddbd v1.5.2PL0 Copyright (c) Steve Scherf et al.
# Submitted via: CDex 1.77
#
DISCID=a30c5e0b
DTITLE=Ralph Alessi - Open Season
DYEAR=2002
DGENRE=Jazz
TTITLE0=Connecting Dots
TTITLE1=Morbid Curiosity
TTITLE2=Good Fever
TTITLE3=Panoramic
TTITLE4=Video
TTITLE5=Slow Freefall
TTITLE6=Tranesonic
TTITLE7=Foxhole
TTITLE8=Conversation with a Circus Midget
TTITLE9=Fear of Fruit
TTITLE10=Connecting Dots Pt 2
EXTD=YEAR: 2002
EXTT0=
EXTT1=
EXTT2=
EXTT3=
EXTT4=
EXTT5=
EXTT6=
EXTT7=
EXTT8=
EXTT9=
EXTT10=
PLAYORDER=
